<svg xmlns="http://www.w3.org/2000/svg" version="1.1" xmlns:xlink="http://www.w3.org/1999/xlink" width="512" height="512" x="0" y="0" viewBox="0 0 427 427.001" style="enable-background:new 0 0 512 512" xml:space="preserve"><g><path fill="#00ACEA" d="M308.602 62.3c15.464 0 28 12.536 28 28 0 15.466-12.536 28-28 28H38.199c-15.46 0-28-12.534-28-28 0-15.464 12.54-28 28-28zm0 0" opacity="1" data-original="#00acea"></path><path fill="#00EFD1" d="M308 118.703V373.5c0 25.09-17.91 43-40 43H78.8c-22.09 0-40-17.91-40-43V118.3H308zm0 0" opacity="1" data-original="#00efd1"></path><g fill="#083863"><path d="M232.402 154.703c-5.523 0-10 4.477-10 10v189c0 5.52 4.477 10 10 10 5.52 0 10-4.48 10-10v-189c0-5.523-4.48-10-10-10zM114.402 154.703c-5.523 0-10 4.477-10 10v189c0 5.52 4.477 10 10 10 5.52 0 10-4.48 10-10v-189c0-5.523-4.48-10-10-10zm0 0" fill="#083863" opacity="1" data-original="#083863"></path><path d="M28.402 127.121V373.5c0 14.563 5.336 28.234 14.668 38.05A49.233 49.233 0 0 0 78.8 427H268a49.233 49.233 0 0 0 35.73-15.45c9.332-9.816 14.672-23.487 14.672-38.05V127.133a40.186 40.186 0 0 0 17.278-9.969 38.285 38.285 0 0 0 8.09-41.57A38.283 38.283 0 0 0 308.602 52h-51.2V39.5a39.276 39.276 0 0 0-11.543-28.031A39.28 39.28 0 0 0 217.801 0H129a39.28 39.28 0 0 0-39.598 39.5V52H38.2C17.184 52.219.203 69.21 0 90.227c.102 17.285 11.719 32.378 28.402 36.894zM268 407H78.8c-17.1 0-30.398-14.688-30.398-33.5V128h250v245.5c0 18.813-13.3 33.5-30.402 33.5zM109.402 39.5A19.262 19.262 0 0 1 129 20h88.8a19.273 19.273 0 0 1 13.927 5.605 19.275 19.275 0 0 1 5.675 13.895V52h-128zM25.465 77.43A18.062 18.062 0 0 1 38.199 72h270.403c9.964.082 18 8.188 18 18.152a17.863 17.863 0 0 1-18 17.848H38.199c-9.922.023-17.98-8.004-18-17.922a17.737 17.737 0 0 1 5.266-12.648zm0 0" fill="#083863" opacity="1" data-original="#083863"></path><path d="M173.402 154.703c-5.523 0-10 4.477-10 10v189c0 5.52 4.477 10 10 10 5.52 0 10-4.48 10-10v-189c0-5.523-4.48-10-10-10zm0 0" fill="#083863" opacity="1" data-original="#083863"></path></g></g></svg>